<?xml version="1.0" encoding="UTF-8"?>
<svg id="Layer_1" data-name="Layer 1" xmlns="http://www.w3.org/2000/svg" version="1.1" viewBox="0 0 1024 1024">
  <defs>
    <style>
      .cls-1 {
        fill: #08072b;
        stroke: #67cec9;
        stroke-miterlimit: 10;
        stroke-width: 11px;
      }

      .cls-2 {
        fill: #fff;
        stroke-width: 0px;
      }
    </style>
  </defs>
  <rect class="cls-1" x="6.5" y="5.5" width="1012" height="1012" rx="240.08" ry="240.08"/>
  <g>
    <path class="cls-2" d="M145,244.96h68.92v257.47h2.38c14.26-20.6,28.52-39.61,41.99-57.04l163.2-200.43h85.56l-193.3,226.58,208.35,307.38h-81.6l-175.87-262.22-50.7,58.62v203.6h-68.92V244.96Z"/>
    <path class="cls-2" d="M549.82,778.91v-42.78l54.66-53.08c131.51-125.17,190.92-191.72,191.72-269.35,0-52.29-25.35-100.61-102.2-100.61-46.74,0-85.56,23.77-109.33,43.57l-22.18-49.12c35.65-30.1,86.35-52.29,145.77-52.29,110.91,0,157.65,76.05,157.65,149.73,0,95.07-68.92,171.91-177.46,276.49l-41.2,38.03v1.59h231.33v57.83h-328.77Z"/>
  </g>
</svg>