<?xml version="1.0" encoding="UTF-8"?>
<svg id="Layer_1" data-name="Layer 1" xmlns="http://www.w3.org/2000/svg" version="1.1" viewBox="0 0 1024 1024">
  <defs>
    <style>
      .cls-1 {
        fill: #1ae9ff;
      }

      .cls-1, .cls-2 {
        stroke-width: 0px;
      }

      .cls-2 {
        fill: #003459;
      }
    </style>
  </defs>
  <rect class="cls-1" x="6.5" y="5.5" width="1012" height="1012" rx="240.1" ry="240.1"/>
  <g>
    <path class="cls-2" d="M145,245h68.9v257.5h2.4c14.3-20.6,28.5-39.6,42-57l163.2-200.4h85.6l-193.3,226.6,208.3,307.4h-81.6l-175.9-262.2-50.7,58.6v203.6h-68.9V245h0Z"/>
    <path class="cls-2" d="M549.8,778.9v-42.8l54.7-53.1c131.5-125.2,190.9-191.7,191.7-269.4,0-52.3-25.3-100.6-102.2-100.6s-85.6,23.8-109.3,43.6l-22.2-49.1c35.7-30.1,86.3-52.3,145.8-52.3,110.9,0,157.6,76.1,157.6,149.7s-68.9,171.9-177.5,276.5l-41.2,38v1.6h231.3v57.8h-328.8,0Z"/>
  </g>
</svg>